<svg width="759" height="876" viewBox="0 0 759 876" fill="none" xmlns="http://www.w3.org/2000/svg">
<path fill-rule="evenodd" clip-rule="evenodd" d="M510.41 0C506.779 0 503.835 2.94359 503.835 6.57469C503.835 10.2058 506.779 13.1494 510.41 13.1494H527.884C531.515 13.1494 534.458 10.2058 534.458 6.57469C534.458 2.94359 531.515 0 527.884 0H510.41ZM505.335 6.57469C505.335 3.77201 507.607 1.5 510.41 1.5H527.884C530.686 1.5 532.958 3.77201 532.958 6.57469C532.958 9.37736 530.686 11.6494 527.884 11.6494H510.41C507.607 11.6494 505.335 9.37736 505.335 6.57469ZM262.861 875.203C266.492 875.203 269.435 872.259 269.435 868.628C269.435 864.997 266.492 862.054 262.861 862.054H245.387C241.756 862.054 238.812 864.997 238.812 868.628C238.812 872.259 241.756 875.203 245.387 875.203H262.861ZM267.935 868.628C267.935 871.431 265.663 873.703 262.861 873.703H245.387C242.584 873.703 240.312 871.431 240.312 868.628C240.312 865.826 242.584 863.554 245.387 863.554H262.861C265.663 863.554 267.935 865.826 267.935 868.628ZM480.536 29.8734C480.536 26.2423 483.48 23.2987 487.111 23.2987H519.147C522.778 23.2987 525.721 26.2423 525.721 29.8734C525.721 33.5045 522.778 36.4481 519.147 36.4481H487.111C483.48 36.4481 480.536 33.5045 480.536 29.8734ZM487.111 24.7987C484.308 24.7987 482.036 27.0707 482.036 29.8734C482.036 32.6761 484.308 34.9481 487.111 34.9481H519.147C521.949 34.9481 524.221 32.6761 524.221 29.8734C524.221 27.0707 521.949 24.7987 519.147 24.7987H487.111ZM286.159 851.904C289.79 851.904 292.734 848.961 292.734 845.33C292.734 841.698 289.79 838.755 286.159 838.755H254.124C250.493 838.755 247.549 841.698 247.549 845.33C247.549 848.961 250.493 851.904 254.124 851.904H286.159ZM291.234 845.33C291.234 848.132 288.962 850.404 286.159 850.404H254.124C251.321 850.404 249.049 848.132 249.049 845.33C249.049 842.527 251.321 840.255 254.124 840.255H286.159C288.962 840.255 291.234 842.527 291.234 845.33ZM457.238 53.1722C457.238 49.5411 460.181 46.5975 463.812 46.5975H510.41C514.041 46.5975 516.985 49.5411 516.985 53.1722C516.985 56.8033 514.041 59.7469 510.41 59.7469H463.812C460.181 59.7469 457.238 56.8033 457.238 53.1722ZM463.812 48.0975C461.01 48.0975 458.738 50.3695 458.738 53.1722C458.738 55.9749 461.01 58.2469 463.812 58.2469H510.41C513.213 58.2469 515.485 55.9749 515.485 53.1722C515.485 50.3695 513.213 48.0975 510.41 48.0975H463.812ZM309.458 828.605C313.089 828.605 316.033 825.662 316.033 822.031C316.033 818.4 313.089 815.456 309.458 815.456H262.861C259.229 815.456 256.286 818.4 256.286 822.031C256.286 825.662 259.229 828.605 262.861 828.605H309.458ZM314.533 822.031C314.533 824.833 312.261 827.105 309.458 827.105H262.861C260.058 827.105 257.786 824.833 257.786 822.031C257.786 819.228 260.058 816.956 262.861 816.956H309.458C312.261 816.956 314.533 819.228 314.533 822.031ZM433.939 76.4709C433.939 72.8398 436.883 69.8962 440.514 69.8962H501.673C505.304 69.8962 508.248 72.8398 508.248 76.4709C508.248 80.102 505.304 83.0456 501.673 83.0456H440.514C436.883 83.0456 433.939 80.102 433.939 76.4709ZM440.514 71.3962C437.711 71.3962 435.439 73.6683 435.439 76.4709C435.439 79.2736 437.711 81.5456 440.514 81.5456H501.673C504.476 81.5456 506.748 79.2736 506.748 76.4709C506.748 73.6683 504.476 71.3962 501.673 71.3962H440.514ZM332.757 805.307C336.388 805.307 339.331 802.363 339.331 798.732C339.331 795.101 336.388 792.157 332.757 792.157H271.598C267.966 792.157 265.023 795.101 265.023 798.732C265.023 802.363 267.966 805.307 271.598 805.307H332.757ZM337.831 798.732C337.831 801.535 335.559 803.807 332.757 803.807H271.598C268.795 803.807 266.523 801.535 266.523 798.732C266.523 795.929 268.795 793.657 271.598 793.657H332.757C335.559 793.657 337.831 795.929 337.831 798.732ZM410.64 99.7696C410.64 96.1385 413.584 93.195 417.215 93.195H492.936C496.567 93.195 499.511 96.1385 499.511 99.7696C499.511 103.401 496.567 106.344 492.936 106.344H417.215C413.584 106.344 410.64 103.401 410.64 99.7696ZM417.215 94.695C414.412 94.695 412.14 96.967 412.14 99.7696C412.14 102.572 414.412 104.844 417.215 104.844H492.936C495.739 104.844 498.011 102.572 498.011 99.7696C498.011 96.967 495.739 94.695 492.936 94.695H417.215ZM356.056 782.008C359.687 782.008 362.631 779.064 362.631 775.433C362.631 771.802 359.687 768.859 356.056 768.859H280.335C276.704 768.859 273.76 771.802 273.76 775.433C273.76 779.064 276.704 782.008 280.335 782.008H356.056ZM361.131 775.433C361.131 778.236 358.859 780.508 356.056 780.508H280.335C277.532 780.508 275.26 778.236 275.26 775.433C275.26 772.631 277.532 770.359 280.335 770.359H356.056C358.859 770.359 361.131 772.631 361.131 775.433ZM387.342 123.068C387.342 119.437 390.285 116.494 393.916 116.494H484.199C487.83 116.494 490.774 119.437 490.774 123.068C490.774 126.7 487.83 129.643 484.199 129.643H393.916C390.285 129.643 387.342 126.7 387.342 123.068ZM393.916 117.994C391.114 117.994 388.842 120.266 388.842 123.068C388.842 125.871 391.114 128.143 393.916 128.143H484.199C487.002 128.143 489.274 125.871 489.274 123.068C489.274 120.266 487.002 117.994 484.199 117.994H393.916ZM379.355 758.709C382.986 758.709 385.929 755.766 385.929 752.135C385.929 748.503 382.986 745.56 379.355 745.56H289.072C285.441 745.56 282.497 748.503 282.497 752.135C282.497 755.766 285.441 758.709 289.072 758.709H379.355ZM384.429 752.135C384.429 754.937 382.157 757.209 379.355 757.209H289.072C286.269 757.209 283.997 754.937 283.997 752.135C283.997 749.332 286.269 747.06 289.072 747.06H379.355C382.157 747.06 384.429 749.332 384.429 752.135ZM364.043 146.367C364.043 142.736 366.986 139.792 370.617 139.792H475.462C479.093 139.792 482.036 142.736 482.036 146.367C482.036 149.998 479.093 152.942 475.462 152.942H370.617C366.986 152.942 364.043 149.998 364.043 146.367ZM370.617 141.292C367.815 141.292 365.543 143.564 365.543 146.367C365.543 149.17 367.815 151.442 370.617 151.442H475.462C478.264 151.442 480.536 149.17 480.536 146.367C480.536 143.564 478.264 141.292 475.462 141.292H370.617ZM402.653 735.41C406.284 735.41 409.228 732.467 409.228 728.836C409.228 725.205 406.284 722.261 402.653 722.261H297.809C294.178 722.261 291.234 725.205 291.234 728.836C291.234 732.467 294.178 735.41 297.809 735.41H402.653ZM407.728 728.836C407.728 731.638 405.456 733.91 402.653 733.91H297.809C295.006 733.91 292.734 731.638 292.734 728.836C292.734 726.033 295.006 723.761 297.809 723.761H402.653C405.456 723.761 407.728 726.033 407.728 728.836ZM343.656 169.666C343.656 166.035 346.6 163.091 350.231 163.091H466.725C470.356 163.091 473.299 166.035 473.299 169.666C473.299 173.297 470.356 176.241 466.725 176.241H350.231C346.6 176.241 343.656 173.297 343.656 169.666ZM350.231 164.591C347.428 164.591 345.156 166.863 345.156 169.666C345.156 172.469 347.428 174.741 350.231 174.741H466.725C469.527 174.741 471.799 172.469 471.799 169.666C471.799 166.863 469.527 164.591 466.725 164.591H350.231ZM423.039 712.112C426.671 712.112 429.614 709.168 429.614 705.537C429.614 701.906 426.671 698.962 423.039 698.962L306.546 698.962C302.915 698.962 299.971 701.906 299.971 705.537C299.971 709.168 302.915 712.112 306.546 712.112H423.039ZM428.114 705.537C428.114 708.34 425.842 710.612 423.039 710.612H306.546C303.743 710.612 301.471 708.34 301.471 705.537C301.471 702.734 303.743 700.462 306.546 700.462L423.039 700.462C425.842 700.462 428.114 702.734 428.114 705.537ZM320.358 192.965C320.358 189.334 323.301 186.39 326.932 186.39H457.988C461.619 186.39 464.562 189.334 464.562 192.965C464.562 196.596 461.619 199.539 457.988 199.539H326.932C323.301 199.539 320.358 196.596 320.358 192.965ZM326.932 187.89C324.13 187.89 321.858 190.162 321.858 192.965C321.858 195.767 324.13 198.039 326.932 198.039H457.988C460.79 198.039 463.062 195.767 463.062 192.965C463.062 190.162 460.79 187.89 457.988 187.89H326.932ZM446.338 688.813C449.969 688.813 452.913 685.869 452.913 682.238C452.913 678.607 449.969 675.664 446.338 675.664L315.283 675.664C311.652 675.664 308.708 678.607 308.708 682.238C308.708 685.869 311.652 688.813 315.283 688.813H446.338ZM451.413 682.238C451.413 685.041 449.141 687.313 446.338 687.313H315.283C312.48 687.313 310.208 685.041 310.208 682.238C310.208 679.436 312.48 677.164 315.283 677.164L446.338 677.164C449.141 677.164 451.413 679.436 451.413 682.238ZM294.147 216.263C294.147 212.632 297.09 209.689 300.721 209.689H449.251C452.882 209.689 455.825 212.632 455.825 216.263C455.825 219.894 452.882 222.838 449.251 222.838H300.721C297.09 222.838 294.147 219.895 294.147 216.263ZM300.721 211.189C297.919 211.189 295.647 213.461 295.647 216.263C295.647 219.066 297.919 221.338 300.721 221.338H449.251C452.053 221.338 454.325 219.066 454.325 216.263C454.325 213.461 452.053 211.189 449.251 211.189H300.721ZM472.549 665.514C476.18 665.514 479.124 662.571 479.124 658.94C479.124 655.308 476.18 652.365 472.549 652.365L324.02 652.365C320.389 652.365 317.445 655.308 317.445 658.94C317.445 662.571 320.389 665.514 324.02 665.514H472.549ZM477.624 658.94C477.624 661.742 475.352 664.014 472.549 664.014H324.02C321.217 664.014 318.945 661.742 318.945 658.94C318.945 656.137 321.217 653.865 324.02 653.865L472.549 653.865C475.352 653.865 477.624 656.137 477.624 658.94ZM270.848 239.562C270.848 235.931 273.791 232.987 277.423 232.987H440.514C444.145 232.987 447.088 235.931 447.088 239.562C447.088 243.193 444.145 246.137 440.514 246.137H277.423C273.791 246.137 270.848 243.193 270.848 239.562ZM277.423 234.487C274.62 234.487 272.348 236.759 272.348 239.562C272.348 242.365 274.62 244.637 277.423 244.637H440.514C443.316 244.637 445.588 242.365 445.588 239.562C445.588 236.759 443.316 234.487 440.514 234.487H277.423ZM495.848 642.216C499.479 642.216 502.423 639.272 502.423 635.641C502.423 632.01 499.479 629.066 495.848 629.066L332.757 629.066C329.126 629.066 326.182 632.01 326.182 635.641C326.182 639.272 329.126 642.216 332.757 642.216H495.848ZM500.923 635.641C500.923 638.443 498.651 640.716 495.848 640.716H332.757C329.954 640.716 327.682 638.443 327.682 635.641C327.682 632.838 329.954 630.566 332.757 630.566L495.848 630.566C498.651 630.566 500.923 632.838 500.923 635.641ZM247.549 262.861C247.549 259.23 250.493 256.286 254.124 256.286H431.777C435.408 256.286 438.352 259.23 438.352 262.861C438.352 266.492 435.408 269.436 431.777 269.436H254.124C250.493 269.436 247.549 266.492 247.549 262.861ZM254.124 257.786C251.321 257.786 249.049 260.058 249.049 262.861C249.049 265.664 251.321 267.936 254.124 267.936H431.777C434.579 267.936 436.852 265.664 436.852 262.861C436.852 260.058 434.579 257.786 431.777 257.786H254.124ZM519.147 618.917C522.778 618.917 525.722 615.973 525.722 612.342C525.722 608.711 522.778 605.767 519.147 605.767L341.494 605.767C337.863 605.767 334.919 608.711 334.919 612.342C334.919 615.973 337.863 618.917 341.494 618.917H519.147ZM524.222 612.342C524.222 615.145 521.95 617.417 519.147 617.417H341.494C338.691 617.417 336.419 615.145 336.419 612.342C336.419 609.539 338.691 607.267 341.494 607.267L519.147 607.267C521.95 607.267 524.222 609.539 524.222 612.342ZM227.163 286.16C227.163 282.529 230.106 279.585 233.737 279.585H423.039C426.671 279.585 429.614 282.529 429.614 286.16C429.614 289.791 426.671 292.734 423.039 292.734H233.737C230.106 292.734 227.163 289.791 227.163 286.16ZM233.737 281.085C230.935 281.085 228.663 283.357 228.663 286.16C228.663 288.962 230.935 291.234 233.737 291.234H423.039C425.842 291.234 428.114 288.962 428.114 286.16C428.114 283.357 425.842 281.085 423.039 281.085H233.737ZM539.533 595.618C543.164 595.618 546.108 592.674 546.108 589.043C546.108 585.412 543.164 582.469 539.533 582.469L350.231 582.469C346.6 582.469 343.656 585.412 343.656 589.043C343.656 592.674 346.6 595.618 350.231 595.618H539.533ZM544.608 589.043C544.608 591.846 542.336 594.118 539.533 594.118H350.231C347.428 594.118 345.156 591.846 345.156 589.043C345.156 586.241 347.428 583.969 350.231 583.969L539.533 583.969C542.336 583.969 544.608 586.241 544.608 589.043ZM200.951 309.458C200.951 305.827 203.895 302.884 207.526 302.884H417.215C420.846 302.884 423.789 305.827 423.789 309.458C423.789 313.089 420.846 316.033 417.215 316.033H207.526C203.895 316.033 200.951 313.089 200.951 309.458ZM207.526 304.384C204.723 304.384 202.451 306.656 202.451 309.458C202.451 312.261 204.723 314.533 207.526 314.533H417.215C420.017 314.533 422.289 312.261 422.289 309.458C422.289 306.656 420.017 304.384 417.215 304.384H207.526ZM565.744 572.319C569.375 572.319 572.319 569.376 572.319 565.745C572.319 562.113 569.375 559.17 565.744 559.17L356.056 559.17C352.425 559.17 349.481 562.113 349.481 565.745C349.481 569.376 352.425 572.319 356.056 572.319H565.744ZM570.819 565.745C570.819 568.547 568.547 570.819 565.744 570.819H356.056C353.253 570.819 350.981 568.547 350.981 565.745C350.981 562.942 353.253 560.67 356.056 560.67L565.744 560.67C568.547 560.67 570.819 562.942 570.819 565.745ZM177.653 332.757C177.653 329.126 180.596 326.182 184.227 326.182H405.565C409.197 326.182 412.14 329.126 412.14 332.757C412.14 336.388 409.197 339.332 405.565 339.332H184.227C180.596 339.332 177.653 336.388 177.653 332.757ZM184.227 327.682C181.425 327.682 179.153 329.954 179.153 332.757C179.153 335.56 181.425 337.832 184.227 337.832H405.565C408.368 337.832 410.64 335.56 410.64 332.757C410.64 329.954 408.368 327.682 405.565 327.682H184.227ZM589.043 549.021C592.674 549.021 595.618 546.077 595.618 542.446C595.618 538.815 592.674 535.871 589.043 535.871L367.705 535.871C364.074 535.871 361.13 538.815 361.13 542.446C361.13 546.077 364.074 549.021 367.705 549.021H589.043ZM594.118 542.446C594.118 545.248 591.846 547.521 589.043 547.521H367.705C364.902 547.521 362.63 545.248 362.63 542.446C362.63 539.643 364.902 537.371 367.705 537.371L589.043 537.371C591.846 537.371 594.118 539.643 594.118 542.446ZM154.354 356.056C154.354 352.425 157.298 349.481 160.929 349.481H396.829C400.46 349.481 403.403 352.425 403.403 356.056C403.403 359.687 400.46 362.631 396.829 362.631H160.929C157.298 362.631 154.354 359.687 154.354 356.056ZM160.929 350.981C158.126 350.981 155.854 353.253 155.854 356.056C155.854 358.859 158.126 361.131 160.929 361.131H396.829C399.631 361.131 401.903 358.859 401.903 356.056C401.903 353.253 399.631 350.981 396.829 350.981H160.929ZM612.342 525.722C615.973 525.722 618.917 522.778 618.917 519.147C618.917 515.516 615.973 512.572 612.342 512.572L6.57465 512.572C2.9436 512.572 0 515.516 0 519.147C0 522.778 2.9436 525.722 6.57465 525.722L612.342 525.722ZM617.417 519.147C617.417 521.95 615.145 524.222 612.342 524.222L6.57465 524.222C3.77203 524.222 1.5 521.95 1.5 519.147C1.5 516.344 3.77197 514.072 6.57465 514.072L612.342 514.072C615.145 514.072 617.417 516.344 617.417 519.147ZM133.968 379.355C133.968 375.724 136.911 372.78 140.543 372.78H752.135C755.766 372.78 758.709 375.724 758.709 379.355C758.709 382.986 755.766 385.929 752.135 385.929H140.543C136.911 385.929 133.968 382.986 133.968 379.355ZM140.543 374.28C137.74 374.28 135.468 376.552 135.468 379.355C135.468 382.157 137.74 384.429 140.543 384.429H752.135C754.937 384.429 757.209 382.157 757.209 379.355C757.209 376.552 754.937 374.28 752.135 374.28H140.543ZM120.156 396.079C116.525 396.079 113.581 399.022 113.581 402.653C113.581 406.284 116.525 409.228 120.156 409.228H731.748C735.379 409.228 738.323 406.284 738.323 402.653C738.323 399.022 735.379 396.079 731.748 396.079H120.156ZM115.081 402.653C115.081 399.851 117.353 397.579 120.156 397.579H731.748C734.551 397.579 736.823 399.851 736.823 402.653C736.823 405.456 734.551 407.728 731.748 407.728H120.156C117.353 407.728 115.081 405.456 115.081 402.653ZM87.37 425.952C87.37 422.321 90.3136 419.377 93.9447 419.377H705.537C709.168 419.377 712.112 422.321 712.112 425.952C712.112 429.583 709.168 432.527 705.537 432.527H93.9447C90.3136 432.527 87.37 429.583 87.37 425.952ZM93.9447 420.877C91.1421 420.877 88.87 423.149 88.87 425.952C88.87 428.755 91.1421 431.027 93.9447 431.027H705.537C708.339 431.027 710.612 428.755 710.612 425.952C710.612 423.149 708.339 420.877 705.537 420.877H93.9447ZM73.5585 442.676C69.9274 442.676 66.9838 445.62 66.9838 449.251C66.9838 452.882 69.9274 455.826 73.5585 455.826H685.151C688.782 455.826 691.725 452.882 691.725 449.251C691.725 445.62 688.782 442.676 685.151 442.676H73.5585ZM68.4838 449.251C68.4838 446.448 70.7558 444.176 73.5585 444.176H685.151C687.953 444.176 690.225 446.448 690.225 449.251C690.225 452.054 687.953 454.326 685.151 454.326H73.5585C70.7558 454.326 68.4838 452.054 68.4838 449.251ZM43.6851 472.55C43.6851 468.918 46.6287 465.975 50.2598 465.975H661.852C665.483 465.975 668.427 468.918 668.427 472.55C668.427 476.181 665.483 479.124 661.852 479.124H50.2598C46.6288 479.124 43.6851 476.181 43.6851 472.55ZM50.2598 467.475C47.4572 467.475 45.1851 469.747 45.1851 472.55C45.1851 475.352 47.4572 477.624 50.2598 477.624H661.852C664.655 477.624 666.927 475.352 666.927 472.55C666.927 469.747 664.655 467.475 661.852 467.475H50.2598ZM24.0487 489.274C20.4176 489.274 17.474 492.217 17.474 495.848C17.474 499.479 20.4176 502.423 24.0487 502.423H635.641C639.272 502.423 642.215 499.479 642.215 495.848C642.215 492.217 639.272 489.274 635.641 489.274H24.0487ZM18.974 495.848C18.974 493.046 21.246 490.774 24.0487 490.774H635.641C638.443 490.774 640.715 493.046 640.715 495.848C640.715 498.651 638.443 500.923 635.641 500.923H24.0487C21.2461 500.923 18.974 498.651 18.974 495.848Z" fill="#F3F4F6"/>
</svg>
