<svg width="26" height="26" viewBox="0 0 26 26" fill="none" xmlns="http://www.w3.org/2000/svg">
<path d="M10.7867 18.12C9.86933 18.04 8.93867 18 8 18H7C5.4087 18 3.88258 17.3679 2.75736 16.2426C1.63214 15.1174 1 13.5913 1 12C1 10.4087 1.63214 8.88258 2.75736 7.75736C3.88258 6.63214 5.4087 6 7 6H8C8.93867 6 9.86933 5.96 10.7867 5.88M10.7867 18.12C11.124 19.4027 11.5653 20.6427 12.1 21.8307C12.4293 22.564 12.18 23.444 11.4827 23.8453L10.6067 24.352C9.872 24.776 8.92667 24.508 8.57067 23.7373C7.72572 21.9094 7.08194 19.995 6.65067 18.028M10.7867 18.12C10.2626 16.1223 9.99824 14.0653 10 12C10 9.88533 10.2733 7.83467 10.7867 5.88M10.7867 18.12C14.8954 18.4721 18.8963 19.6201 22.5667 21.5M10.7867 5.88C14.8954 5.52789 18.8963 4.37991 22.5667 2.5M22.5667 2.5C22.4103 1.99585 22.2414 1.4957 22.06 1M22.5667 2.5C23.292 4.83792 23.7457 7.2516 23.9187 9.69333M22.5667 21.5C22.4093 22.0067 22.24 22.5053 22.06 23M22.5667 21.5C23.292 19.1621 23.7457 16.7484 23.9187 14.3067M23.9187 9.69333C24.5787 10.244 25 11.0733 25 12C25 12.9267 24.5787 13.756 23.9187 14.3067M23.9187 9.69333C24.0281 11.2292 24.0281 12.7708 23.9187 14.3067" stroke="black" stroke-width="1.5" stroke-linecap="round" stroke-linejoin="round"/>
</svg>
