<svg width="1592" height="1160" viewBox="0 0 1592 1160" fill="none" xmlns="http://www.w3.org/2000/svg">
<path fill-rule="evenodd" clip-rule="evenodd" d="M378.642 1.21977C379.039 0.826228 379.575 0.605412 380.134 0.605412H1211.37C1211.93 0.605412 1212.47 0.826223 1212.86 1.21977L1590.27 375.478C1591.13 376.324 1591.18 377.588 1590.36 378.401C1558.86 409.461 1084.39 877.234 795.168 1158.73C794.346 1159.53 793.06 1159.51 792.234 1158.69L1.23638 378.491C0.396685 377.663 0.394852 376.309 1.23232 375.478L378.642 1.21977ZM380.134 0C379.415 0 378.726 0.283906 378.215 0.789889L0.806024 375.048C-0.270726 376.116 -0.268357 377.857 0.811243 378.922L791.809 1159.12C792.859 1160.16 794.522 1160.2 795.59 1159.17C1084.82 877.666 1559.29 409.891 1590.79 378.833C1591.88 377.753 1591.76 376.1 1590.7 375.048L1213.29 0.789886C1212.78 0.283905 1212.09 0 1211.37 0H380.134ZM436.968 71.4244C436.409 71.4244 435.873 71.645 435.476 72.0382L109.889 394.644C109.05 395.475 109.052 396.83 109.893 397.659L792.514 1070.41C793.34 1071.22 794.625 1071.25 795.446 1070.45C1044.71 828.047 1453 425.849 1481.75 397.52C1482.57 396.715 1482.48 395.499 1481.62 394.644L1156.03 72.0382C1155.63 71.645 1155.1 71.4244 1154.54 71.4244H436.968ZM435.05 71.6081C435.56 71.1026 436.25 70.819 436.968 70.819H1154.54C1155.26 70.819 1155.95 71.1026 1156.46 71.6081L1482.04 394.214C1483.1 395.257 1483.28 396.863 1482.18 397.952C1453.42 426.28 1045.13 828.479 795.868 1070.89C794.801 1071.92 793.139 1071.88 792.089 1070.84L109.468 398.09C108.387 397.025 108.385 395.282 109.463 394.214L435.05 71.6081ZM484.191 124.425C484.588 124.032 485.124 123.811 485.683 123.811H1105.82C1106.38 123.811 1106.92 124.032 1107.31 124.425L1388.48 402.937C1389.35 403.799 1389.46 404.984 1388.65 405.784C1362.27 431.767 1010.69 777.988 795.685 987.021C794.864 987.82 793.578 987.795 792.752 986.981L203.025 405.952C202.184 405.124 202.183 403.768 203.021 402.937L484.191 124.425ZM485.683 123.206C484.964 123.206 484.276 123.49 483.765 123.995L202.595 402.507C201.517 403.575 201.519 405.318 202.6 406.383L792.327 987.412C793.378 988.447 795.04 988.493 796.107 987.455C1011.12 778.42 1362.7 432.198 1389.08 406.215C1390.19 405.122 1389.96 403.545 1388.91 402.507L1107.74 123.995C1107.23 123.49 1106.54 123.206 1105.82 123.206H485.683ZM528.309 168.437C527.75 168.437 527.214 168.658 526.817 169.051L284.511 409.139C283.673 409.969 283.674 411.325 284.515 412.153L792.961 913.25C793.787 914.065 795.073 914.089 795.895 913.29C980.931 733.337 1282.9 435.891 1307.18 411.971C1307.59 411.56 1307.75 411.069 1307.72 410.58C1307.68 410.084 1307.43 409.57 1307 409.139L1064.69 169.051C1064.29 168.658 1063.76 168.437 1063.2 168.437H528.309ZM526.391 168.621C526.901 168.115 527.59 167.832 528.309 167.832H1063.2C1063.92 167.832 1064.6 168.115 1065.11 168.621L1307.42 408.709C1307.94 409.226 1308.27 409.871 1308.32 410.532C1308.37 411.2 1308.14 411.866 1307.6 412.402C1283.32 436.322 981.355 733.769 796.317 913.724C795.249 914.763 793.587 914.717 792.536 913.682L284.09 412.584C283.009 411.519 283.007 409.777 284.085 408.709L526.391 168.621ZM567.413 210.767C567.81 210.373 568.346 210.152 568.905 210.152H1022.6C1023.16 210.152 1023.7 210.373 1024.09 210.767L1229.39 414.32C1229.82 414.751 1230.07 415.265 1230.11 415.762C1230.14 416.252 1229.98 416.744 1229.56 417.154C1207.31 439.09 952.59 690.166 796.095 842.469C795.273 843.269 793.986 843.245 793.159 842.43L362.123 417.333C361.283 416.505 361.281 415.151 362.119 414.32L567.413 210.767ZM568.905 209.547C568.186 209.547 567.497 209.831 566.987 210.337L361.693 413.89C360.616 414.958 360.618 416.7 361.698 417.764L792.734 842.861C793.785 843.897 795.449 843.942 796.517 842.903C953.014 690.598 1207.74 439.521 1229.99 417.586C1230.53 417.05 1230.76 416.383 1230.71 415.715C1230.66 415.053 1230.34 414.408 1229.81 413.89L1024.52 210.337C1024.01 209.831 1023.32 209.547 1022.6 209.547H568.905ZM603.92 241.196C603.361 241.196 602.824 241.417 602.427 241.811L429.056 413.869C428.219 414.7 428.221 416.053 429.06 416.881L793.331 776.459C794.157 777.275 795.446 777.298 796.268 776.498C928.146 648.031 1142.13 436.924 1162.6 416.727C1163.42 415.925 1163.32 414.727 1162.45 413.869L989.079 241.811C988.682 241.417 988.145 241.196 987.586 241.196H603.92ZM602.001 241.382C602.511 240.875 603.201 240.591 603.92 240.591H987.586C988.305 240.591 988.995 240.875 989.505 241.382L1162.88 413.439C1163.92 414.479 1164.13 416.067 1163.03 417.158C1142.56 437.354 928.571 648.464 796.69 776.932C795.623 777.972 793.956 777.928 792.905 776.89L428.634 417.312C427.556 416.247 427.553 414.507 428.629 413.44L602.001 241.382ZM637.441 280.617C637.838 280.223 638.375 280.001 638.934 280.001H952.571C953.131 280.001 953.668 280.223 954.065 280.617L1095.51 421.18C1096.37 422.027 1096.43 423.281 1095.61 424.092C1076.97 442.508 903.704 613.658 796.441 718.286C795.619 719.088 794.327 719.065 793.501 718.248L495.995 424.19C495.157 423.362 495.155 422.01 495.991 421.18L637.441 280.617ZM638.934 279.396C638.215 279.396 637.525 279.68 637.014 280.188L495.564 420.75C494.49 421.818 494.492 423.556 495.569 424.62L793.075 718.679C794.127 719.718 795.796 719.761 796.864 718.72C904.128 614.09 1077.4 442.938 1096.03 424.523C1097.13 423.442 1097 421.801 1095.94 420.75L954.491 280.188C953.981 279.68 953.291 279.396 952.571 279.396H638.934ZM670.904 314.926C670.344 314.926 669.808 315.147 669.411 315.542L557.109 427.129C556.274 427.959 556.275 429.311 557.113 430.139L793.658 663.922C794.484 664.738 795.777 664.76 796.6 663.958C881.395 581.248 1017.52 446.804 1034.4 430.135C1035.23 429.308 1035.23 427.959 1034.4 427.129L922.096 315.542C921.699 315.147 921.162 314.926 920.602 314.926H670.904ZM668.984 315.112C669.494 314.605 670.185 314.321 670.904 314.321H920.602C921.322 314.321 922.012 314.605 922.522 315.112L1034.82 426.699C1035.9 427.766 1035.9 429.5 1034.82 430.565C1017.95 447.234 881.82 581.68 797.022 664.392C795.955 665.433 794.284 665.392 793.232 664.353L556.687 430.57C555.61 429.505 555.608 427.767 556.682 426.699L668.984 315.112ZM699.35 346.586C699.747 346.191 700.284 345.97 700.844 345.97H890.662C891.222 345.97 891.759 346.191 892.156 346.586L977.161 431.087C978.006 431.927 978.044 433.22 977.216 434.038C962.94 448.147 860.835 549.026 796.749 611.568C795.926 612.371 794.63 612.35 793.805 611.534L614.349 434.096C613.512 433.269 613.51 431.917 614.345 431.087L699.35 346.586ZM700.844 345.364C700.124 345.364 699.434 345.649 698.923 346.157L613.919 430.658C612.845 431.725 612.847 433.463 613.924 434.527L793.379 611.965C794.431 613.005 796.104 613.043 797.172 612.002C861.259 549.458 963.365 448.577 977.641 434.468C978.728 433.394 978.651 431.715 977.588 430.657L892.583 346.157C892.073 345.649 891.382 345.364 890.662 345.364H700.844ZM723.678 369.253C723.119 369.253 722.582 369.474 722.185 369.868L658.004 433.582C657.168 434.412 657.17 435.765 658.008 436.594L793.917 570.792C794.742 571.607 796.039 571.626 796.862 570.824C845.141 523.767 921.303 448.628 933.551 436.54C934.381 435.721 934.347 434.421 933.502 433.582L869.321 369.868C868.924 369.474 868.387 369.253 867.828 369.253H723.678ZM721.759 369.438C722.269 368.932 722.959 368.647 723.678 368.647H867.828C868.547 368.647 869.237 368.932 869.747 369.438L933.928 433.152C934.995 434.211 935.064 435.898 933.977 436.971C921.729 449.058 845.565 524.199 797.285 571.257C796.218 572.297 794.544 572.262 793.492 571.223L657.583 437.024C656.505 435.96 656.502 434.22 657.578 433.152L721.759 369.438ZM745.528 393.157C745.925 392.759 746.464 392.536 747.026 392.536H844.48C845.042 392.536 845.581 392.759 845.978 393.157L888.895 436.083C889.727 436.916 889.741 438.238 888.913 439.061C879.123 448.795 829.209 498.404 796.988 530.055C796.163 530.865 794.851 530.85 794.026 530.028L702.615 439.084C701.784 438.257 701.782 436.913 702.611 436.084L745.528 393.157ZM747.026 391.93C746.303 391.93 745.61 392.217 745.099 392.728L702.183 435.656C701.117 436.721 701.12 438.45 702.188 439.513L793.599 530.458C794.654 531.507 796.345 531.535 797.412 530.487C829.635 498.834 879.55 449.224 889.34 439.49C890.413 438.423 890.385 436.718 889.323 435.655L846.406 392.728C845.895 392.217 845.202 391.93 844.48 391.93H747.026ZM766.84 418.377C767.238 417.981 767.775 417.759 768.336 417.759H823.169C823.73 417.759 824.268 417.981 824.665 418.377L848.14 441.777C848.975 442.609 848.984 443.942 848.152 444.766C841.223 451.631 814.811 477.782 797.102 495.126C796.275 495.935 794.956 495.928 794.133 495.112L743.369 444.783C742.534 443.955 742.532 442.607 743.365 441.777L766.84 418.377ZM768.336 417.154C767.615 417.154 766.924 417.439 766.413 417.948L742.937 441.348C741.867 442.415 741.869 444.149 742.942 445.213L793.707 495.542C794.763 496.59 796.461 496.601 797.525 495.559C815.237 478.213 841.649 452.061 848.578 445.196C849.654 444.13 849.635 442.412 848.568 441.348L825.092 417.948C824.582 417.439 823.89 417.154 823.169 417.154H768.336Z" fill="url(#paint0_radial_1602_53954)"/>
<defs>
<radialGradient id="paint0_radial_1602_53954" cx="0" cy="0" r="1" gradientUnits="userSpaceOnUse" gradientTransform="translate(795.511 459.508) rotate(179.823) scale(604.492 828.95)">
<stop stop-color="#8673FC"/>
<stop offset="0.114867" stop-color="#7955E5"/>
<stop offset="0.335164" stop-color="#9F63EE" stop-opacity="0.08"/>
<stop offset="0.389349" stop-color="#CA82F6"/>
<stop offset="0.576002" stop-color="#9F63EE" stop-opacity="0.08"/>
<stop offset="1" stop-color="#A28ED9" stop-opacity="0"/>
</radialGradient>
</defs>
</svg>
