<svg width="28" height="26" viewBox="0 0 28 26" fill="none" xmlns="http://www.w3.org/2000/svg">
<path d="M15.8753 24.25V14.875C15.8753 14.6264 15.974 14.3879 16.1499 14.2121C16.3257 14.0363 16.5641 13.9375 16.8128 13.9375H20.5628C20.8114 13.9375 21.0499 14.0363 21.2257 14.2121C21.4015 14.3879 21.5003 14.6264 21.5003 14.875V24.25M15.8753 24.25H1.95026M15.8753 24.25H21.5003M21.5003 24.25H26.0503M24.3128 24.25V9.68625M3.68776 24.2487V9.6875M3.68776 9.6875C4.43779 10.12 5.31432 10.2797 6.16869 10.1396C7.02306 9.99947 7.80266 9.56814 8.37526 8.91875C8.72689 9.31806 9.15964 9.63777 9.64463 9.85656C10.1296 10.0753 10.6557 10.1882 11.1878 10.1875C12.3078 10.1875 13.3128 9.69625 14.0003 8.9175C14.3518 9.31704 14.7845 9.63699 15.2695 9.85599C15.7545 10.075 16.2806 10.188 16.8128 10.1875C17.9328 10.1875 18.9378 9.69625 19.6253 8.9175C20.198 9.56669 20.9777 9.99778 21.8321 10.1377C22.6864 10.2776 23.5629 10.1176 24.3128 9.685M3.68776 9.685C3.19031 9.39669 2.7657 8.99799 2.44668 8.51964C2.12767 8.04129 1.92276 7.49608 1.84776 6.92602C1.77276 6.35597 1.82967 5.7763 2.0141 5.23172C2.19853 4.68713 2.50556 4.19217 2.91151 3.785L4.39776 2.3C4.74906 1.94827 5.22565 1.75044 5.72276 1.75H22.2765C22.7736 1.75044 23.2502 1.94827 23.6015 2.3L25.089 3.78625C25.4959 4.19295 25.8038 4.68782 25.9888 5.23256C26.1738 5.7773 26.231 6.3573 26.1559 6.92769C26.0809 7.49807 25.8756 8.04354 25.556 8.52189C25.2364 9.00024 24.811 9.39863 24.3128 9.68625M7.43776 20.4987H12.1253C12.3739 20.4987 12.6124 20.4 12.7882 20.2242C12.964 20.0483 13.0628 19.8099 13.0628 19.5612V14.875C13.0628 14.6264 12.964 14.3879 12.7882 14.2121C12.6124 14.0363 12.3739 13.9375 12.1253 13.9375H7.43776C7.18912 13.9375 6.95067 14.0363 6.77485 14.2121C6.59903 14.3879 6.50026 14.6264 6.50026 14.875V19.5625C6.50026 20.0812 6.92026 20.5 7.43776 20.5V20.4987Z" stroke="black" stroke-width="1.875" stroke-linecap="round" stroke-linejoin="round"/>
</svg>
