<svg width="936" height="936" viewBox="0 0 936 936" fill="none" xmlns="http://www.w3.org/2000/svg">
<path opacity="0.6" fill-rule="evenodd" clip-rule="evenodd" d="M935 468C935 725.917 725.917 935 468 935C210.083 935 1 725.917 1 468C1 210.083 210.083 1 468 1C725.917 1 935 210.083 935 468ZM936 468C936 726.469 726.469 936 468 936C209.531 936 0 726.469 0 468C0 209.531 209.531 0 468 0C726.469 0 936 209.531 936 468ZM468 878.632C694.786 878.632 878.632 694.786 878.632 468C878.632 241.214 694.786 57.3677 468 57.3677C241.214 57.3677 57.3677 241.214 57.3677 468C57.3677 694.786 241.214 878.632 468 878.632ZM468 879.632C695.338 879.632 879.632 695.338 879.632 468C879.632 240.662 695.338 56.3677 468 56.3677C240.662 56.3677 56.3677 240.662 56.3677 468C56.3677 695.338 240.662 879.632 468 879.632ZM831.906 468C831.906 668.98 668.98 831.906 468 831.906C267.02 831.906 104.094 668.98 104.094 468C104.094 267.02 267.02 104.094 468 104.094C668.98 104.094 831.906 267.02 831.906 468ZM832.906 468C832.906 669.532 669.532 832.906 468 832.906C266.468 832.906 103.094 669.532 103.094 468C103.094 266.468 266.468 103.094 468 103.094C669.532 103.094 832.906 266.468 832.906 468ZM468 787.406C644.403 787.406 787.406 644.403 787.406 468C787.406 291.597 644.403 148.594 468 148.594C291.597 148.594 148.594 291.597 148.594 468C148.594 644.403 291.597 787.406 468 787.406ZM468 788.406C644.955 788.406 788.406 644.955 788.406 468C788.406 291.045 644.955 147.594 468 147.594C291.045 147.594 147.594 291.045 147.594 468C147.594 644.955 291.045 788.406 468 788.406ZM743.647 468C743.647 620.235 620.235 743.647 468 743.647C315.765 743.647 192.353 620.235 192.353 468C192.353 315.765 315.765 192.353 468 192.353C620.235 192.353 743.647 315.765 743.647 468ZM744.647 468C744.647 620.788 620.788 744.647 468 744.647C315.212 744.647 191.353 620.788 191.353 468C191.353 315.212 315.212 191.353 468 191.353C620.788 191.353 744.647 315.212 744.647 468ZM468 704.338C598.526 704.338 704.338 598.526 704.338 468C704.338 337.474 598.526 231.662 468 231.662C337.474 231.662 231.662 337.474 231.662 468C231.662 598.526 337.474 704.338 468 704.338ZM468 705.338C599.078 705.338 705.338 599.078 705.338 468C705.338 336.922 599.078 230.662 468 230.662C336.922 230.662 230.662 336.922 230.662 468C230.662 599.078 336.922 705.338 468 705.338ZM668.737 468C668.737 578.864 578.864 668.737 468 668.737C357.136 668.737 267.263 578.864 267.263 468C267.263 357.136 357.136 267.263 468 267.263C578.864 267.263 668.737 357.136 668.737 468ZM669.737 468C669.737 579.416 579.416 669.737 468 669.737C356.584 669.737 266.263 579.416 266.263 468C266.263 356.584 356.584 266.263 468 266.263C579.416 266.263 669.737 356.584 669.737 468ZM468 636.103C560.841 636.103 636.103 560.841 636.103 468C636.103 375.159 560.841 299.897 468 299.897C375.159 299.897 299.897 375.159 299.897 468C299.897 560.841 375.159 636.103 468 636.103ZM468 637.103C561.393 637.103 637.103 561.393 637.103 468C637.103 374.607 561.393 298.897 468 298.897C374.607 298.897 298.897 374.607 298.897 468C298.897 561.393 374.607 637.103 468 637.103ZM604.952 468C604.952 543.637 543.637 604.952 468 604.952C392.363 604.952 331.048 543.637 331.048 468C331.048 392.363 392.363 331.048 468 331.048C543.637 331.048 604.952 392.363 604.952 468ZM605.952 468C605.952 544.189 544.189 605.952 468 605.952C391.811 605.952 330.048 544.189 330.048 468C330.048 391.811 391.811 330.048 468 330.048C544.189 330.048 605.952 391.811 605.952 468ZM468 576.769C528.071 576.769 576.769 528.071 576.769 468C576.769 407.929 528.071 359.231 468 359.231C407.929 359.231 359.231 407.929 359.231 468C359.231 528.071 407.929 576.769 468 576.769ZM468 577.769C528.624 577.769 577.769 528.624 577.769 468C577.769 407.376 528.624 358.231 468 358.231C407.376 358.231 358.231 407.376 358.231 468C358.231 528.624 407.376 577.769 468 577.769ZM551.552 468C551.552 514.144 514.144 551.552 468 551.552C421.856 551.552 384.448 514.144 384.448 468C384.448 421.856 421.856 384.448 468 384.448C514.144 384.448 551.552 421.856 551.552 468ZM552.552 468C552.552 514.697 514.697 552.552 468 552.552C421.303 552.552 383.448 514.697 383.448 468C383.448 421.303 421.303 383.448 468 383.448C514.697 383.448 552.552 421.303 552.552 468ZM468 524.851C499.398 524.851 524.851 499.398 524.851 468C524.851 436.602 499.398 411.149 468 411.149C436.602 411.149 411.149 436.602 411.149 468C411.149 499.398 436.602 524.851 468 524.851ZM468 525.851C499.95 525.851 525.851 499.95 525.851 468C525.851 436.05 499.95 410.149 468 410.149C436.05 410.149 410.149 436.05 410.149 468C410.149 499.95 436.05 525.851 468 525.851ZM468 499.634C485.471 499.634 499.634 485.471 499.634 468C499.634 450.529 485.471 436.366 468 436.366C450.529 436.366 436.366 450.529 436.366 468C436.366 485.471 450.529 499.634 468 499.634ZM468 500.634C486.023 500.634 500.634 486.023 500.634 468C500.634 449.977 486.023 435.366 468 435.366C449.977 435.366 435.366 449.977 435.366 468C435.366 486.023 449.977 500.634 468 500.634Z" fill="url(#paint0_linear_1610_55191)"/>
<defs>
<linearGradient id="paint0_linear_1610_55191" x1="681.604" y1="50.4343" x2="3.92967e-05" y2="528.076" gradientUnits="userSpaceOnUse">
<stop stop-color="#F5F5F5"/>
<stop offset="0.22188" stop-color="#E892D0"/>
<stop offset="0.353194" stop-color="#E5BAD9"/>
<stop offset="0.377144" stop-color="#EAEDEC"/>
<stop offset="0.573594" stop-color="#C292E8"/>
<stop offset="0.719679" stop-color="#E5D4E9"/>
<stop offset="1" stop-color="#F8F8F8"/>
</linearGradient>
</defs>
</svg>
