<svg width="26" height="24" viewBox="0 0 26 24" fill="none" xmlns="http://www.w3.org/2000/svg">
<path d="M1 6.75V19.75C1 20.5457 1.31607 21.3087 1.87868 21.8713C2.44129 22.4339 3.20435 22.75 4 22.75H22C22.7957 22.75 23.5587 22.4339 24.1213 21.8713C24.6839 21.3087 25 20.5457 25 19.75V6.75M1 6.75V3.75C1 2.95435 1.31607 2.19129 1.87868 1.62868C2.44129 1.06607 3.20435 0.75 4 0.75H22C22.7957 0.75 23.5587 1.06607 24.1213 1.62868C24.6839 2.19129 25 2.95435 25 3.75V6.75M1 6.75H25M4 3.75H4.01067V3.76067H4V3.75ZM7 3.75H7.01067V3.76067H7V3.75ZM10 3.75H10.0107V3.76067H10V3.75Z" stroke="black" stroke-width="1.5" stroke-linecap="round" stroke-linejoin="round"/>
</svg>
