<svg width="676" height="428" viewBox="0 0 676 428" fill="none" xmlns="http://www.w3.org/2000/svg">
<mask id="mask0_1525_58295" style="mask-type:alpha" maskUnits="userSpaceOnUse" x="40" y="40" width="596" height="348">
<rect x="40" y="40" width="596" height="348" rx="20" fill="white" fill-opacity="0.4"/>
<rect x="40" y="40" width="596" height="348" rx="20" fill="url(#paint0_radial_1525_58295)"/>
</mask>
<g mask="url(#mask0_1525_58295)">
<path fill-rule="evenodd" clip-rule="evenodd" d="M-81.0201 -543.985C-80.3646 -544.635 -79.4788 -545 -78.5556 -545H1294.46C1295.38 -545 1296.27 -544.635 1296.92 -543.985L1920.31 74.2024C1921.72 75.5999 1921.82 77.6882 1920.46 79.0314C1868.43 130.334 1084.72 902.987 606.984 1367.96C605.628 1369.28 603.503 1369.23 602.138 1367.89L-704.406 79.1798C-705.793 77.8118 -705.796 75.5745 -704.413 74.2027L-81.0201 -543.985ZM-78.5556 -546C-79.7426 -546 -80.8814 -545.531 -81.7242 -544.695L-705.117 73.4927C-706.895 75.2563 -706.892 78.1329 -705.108 79.8918L601.436 1368.6C603.171 1370.31 605.918 1370.39 607.682 1368.67C1085.42 903.701 1869.13 131.045 1921.16 79.7435C1922.97 77.96 1922.77 75.2305 1921.02 73.4924L1297.63 -544.695C1296.78 -545.531 1295.64 -546 1294.46 -546H-78.5556ZM15.3207 -428.023C14.3979 -428.023 13.5127 -427.659 12.8572 -427.01L-524.938 105.861C-526.323 107.233 -526.32 109.471 -524.931 110.84L602.6 1222.07C603.964 1223.42 606.088 1223.46 607.444 1222.14C1019.17 821.741 1693.57 157.405 1741.06 110.611C1742.41 109.282 1742.27 107.273 1740.84 105.86L1203.04 -427.01C1202.39 -427.659 1201.5 -428.023 1200.58 -428.023H15.3207ZM12.1533 -427.72C12.9961 -428.555 14.1344 -429.023 15.3207 -429.023H1200.58C1201.77 -429.023 1202.91 -428.555 1203.75 -427.72L1741.54 105.15C1743.28 106.873 1743.59 109.526 1741.77 111.324C1694.27 158.116 1019.86 822.455 608.141 1222.85C606.378 1224.57 603.633 1224.49 601.898 1222.78L-525.633 111.552C-527.418 109.793 -527.422 106.914 -525.642 105.15L12.1533 -427.72ZM93.3235 -340.479C93.9789 -341.128 94.8641 -341.492 95.7866 -341.492H1120.12C1121.04 -341.492 1121.92 -341.128 1122.58 -340.479L1587.01 119.559C1588.44 120.982 1588.62 122.939 1587.28 124.26C1543.71 167.178 962.98 739.055 607.839 1084.33C606.482 1085.65 604.359 1085.61 602.995 1084.26L-371.098 124.539C-372.487 123.171 -372.49 120.931 -371.104 119.559L93.3235 -340.479ZM95.7866 -342.492C94.6006 -342.492 93.4625 -342.024 92.6198 -341.189L-371.808 118.849C-373.589 120.613 -373.585 123.492 -371.8 125.251L602.293 1084.98C604.028 1086.69 606.773 1086.76 608.536 1085.05C963.68 739.769 1544.41 167.89 1587.98 124.973C1589.82 123.167 1589.44 120.562 1587.71 118.848L1123.28 -341.189C1122.44 -342.024 1121.3 -342.492 1120.12 -342.492H95.7866ZM166.195 -267.781C165.272 -267.781 164.387 -267.417 163.732 -266.767L-236.502 129.802C-237.887 131.174 -237.884 133.413 -236.496 134.781L603.34 962.478C604.704 963.823 606.829 963.863 608.185 962.544C913.823 665.302 1412.6 173.99 1452.7 134.48C1453.39 133.802 1453.66 132.991 1453.6 132.182C1453.53 131.363 1453.12 130.515 1452.4 129.802L1052.17 -266.767C1051.52 -267.417 1050.63 -267.781 1049.71 -267.781H166.195ZM163.028 -267.478C163.87 -268.313 165.009 -268.781 166.195 -268.781H1049.71C1050.89 -268.781 1052.03 -268.313 1052.87 -267.478L1453.11 129.092C1453.97 129.947 1454.51 131.011 1454.59 132.104C1454.68 133.207 1454.3 134.307 1453.4 135.192C1413.3 174.702 914.523 666.017 608.882 963.261C607.119 964.976 604.373 964.9 602.638 963.19L-237.197 135.494C-238.982 133.734 -238.986 130.856 -237.206 129.092L163.028 -267.478ZM230.786 -197.862C231.442 -198.512 232.328 -198.877 233.251 -198.877H982.651C983.574 -198.877 984.46 -198.512 985.115 -197.862L1324.21 138.36C1324.93 139.073 1325.34 139.922 1325.4 140.742C1325.46 141.552 1325.19 142.364 1324.51 143.042C1287.75 179.275 867.009 593.994 608.516 845.564C607.158 846.884 605.032 846.844 603.667 845.499L-108.305 143.338C-109.692 141.97 -109.695 139.732 -108.312 138.361L230.786 -197.862ZM233.251 -199.877C232.064 -199.877 230.925 -199.408 230.082 -198.573L-109.016 137.65C-110.794 139.414 -110.791 142.291 -109.007 144.05L602.965 846.211C604.701 847.922 607.45 847.996 609.213 846.28C867.709 594.708 1288.46 179.987 1325.21 143.755C1326.11 142.869 1326.48 141.769 1326.4 140.665C1326.31 139.571 1325.78 138.506 1324.92 137.65L985.819 -198.573C984.977 -199.408 983.838 -199.877 982.651 -199.877H233.251ZM291.087 -147.6C290.163 -147.6 289.277 -147.235 288.621 -146.584L2.25165 137.616C0.86969 138.988 0.872681 141.223 2.25836 142.591L603.95 736.53C605.314 737.877 607.444 737.917 608.801 736.594C826.634 524.398 1180.09 175.696 1213.9 142.336C1215.24 141.011 1215.08 139.033 1213.65 137.616L927.28 -146.584C926.625 -147.235 925.739 -147.6 924.815 -147.6H291.087ZM287.917 -147.294C288.76 -148.13 289.899 -148.6 291.087 -148.6H924.815C926.002 -148.6 927.142 -148.13 927.985 -147.294L1214.35 136.906C1216.08 138.624 1216.43 141.246 1214.6 143.047C1180.79 176.408 827.335 525.111 609.499 737.311C607.736 739.029 604.983 738.956 603.247 737.242L1.55585 143.303C-0.225708 141.544 -0.229614 138.67 1.54724 136.906L287.917 -147.294ZM346.456 -82.4855C347.112 -83.1371 347.999 -83.5028 348.923 -83.5028H866.978C867.903 -83.5028 868.79 -83.1371 869.445 -82.4854L1103.09 149.691C1104.5 151.091 1104.6 153.162 1103.24 154.502C1072.46 184.92 786.261 467.62 609.088 640.443C607.73 641.767 605.596 641.729 604.231 640.38L112.82 154.663C111.437 153.296 111.434 151.063 112.813 149.692L346.456 -82.4855ZM348.923 -84.5028C347.735 -84.5028 346.595 -84.0326 345.752 -83.1948L112.108 148.982C110.334 150.745 110.338 153.616 112.117 155.375L603.529 641.091C605.265 642.808 608.022 642.879 609.786 641.158C786.962 468.334 1073.16 185.631 1103.95 155.213C1105.75 153.429 1105.54 150.717 1103.79 148.982L870.15 -83.1948C869.307 -84.0326 868.167 -84.5028 866.978 -84.5028H348.923ZM401.73 -25.8154C400.805 -25.8154 399.918 -25.4498 399.263 -24.7982L213.766 159.518C212.386 160.889 212.39 163.122 213.773 164.49L604.491 550.645C605.855 551.993 607.991 552.03 609.349 550.705C749.412 414.087 974.264 192.016 1002.14 164.483C1003.52 163.116 1003.52 160.89 1002.14 159.517L816.64 -24.7982C815.984 -25.4498 815.097 -25.8154 814.173 -25.8154H401.73ZM398.558 -25.5076C399.401 -26.3453 400.541 -26.8154 401.73 -26.8154H814.173C815.361 -26.8154 816.501 -26.3453 817.344 -25.5076L1002.84 158.808C1004.61 160.57 1004.62 163.435 1002.84 165.194C974.967 192.727 750.113 414.8 610.048 551.421C608.284 553.141 605.525 553.073 603.788 551.356L213.07 165.201C211.291 163.443 211.287 160.571 213.062 158.808L398.558 -25.5076ZM448.715 26.4796C449.371 25.8277 450.258 25.4618 451.183 25.4618H764.719C765.643 25.4618 766.531 25.8277 767.186 26.4796L907.594 166.055C908.99 167.443 909.052 169.578 907.685 170.929C884.104 194.234 715.45 360.864 609.595 464.169C608.236 465.495 606.096 465.461 604.732 464.112L308.314 171.027C306.931 169.659 306.928 167.427 308.307 166.056L448.715 26.4796ZM451.183 24.4618C449.994 24.4618 448.854 24.9323 448.01 25.7704L307.602 165.346C305.829 167.109 305.833 169.98 307.611 171.738L604.029 464.823C605.767 466.542 608.531 466.605 610.294 464.885C716.151 361.577 884.807 194.945 908.388 171.641C910.183 169.867 910.056 167.093 908.299 165.346L767.891 25.7704C767.048 24.9323 765.908 24.4618 764.719 24.4618H451.183ZM488.9 63.9199C487.976 63.9199 487.09 64.2852 486.434 64.936L380.422 170.177C379.04 171.548 379.043 173.783 380.429 175.151L604.919 396.816C606.282 398.161 608.424 398.193 609.783 396.868C689.528 319.141 815.331 195.029 835.562 175.063C836.933 173.71 836.876 171.563 835.48 170.177L729.468 64.936C728.812 64.2852 727.926 63.9199 727.002 63.9199H488.9ZM485.73 64.2263C486.573 63.3895 487.712 62.9199 488.9 62.9199H727.002C728.19 62.9199 729.329 63.3895 730.172 64.2263L836.184 169.467C837.946 171.215 838.061 174.002 836.264 175.774C816.033 195.74 690.229 319.854 610.481 397.584C608.72 399.301 605.955 399.244 604.216 397.528L379.726 175.863C377.945 174.104 377.941 171.23 379.717 169.467L485.73 64.2263ZM524.99 103.403C525.647 102.747 526.537 102.378 527.466 102.378H688.436C689.365 102.378 690.255 102.747 690.911 103.403L761.799 174.309C763.175 175.685 763.197 177.867 761.83 179.226C745.66 195.305 663.213 277.247 609.991 329.528C608.628 330.866 606.462 330.841 605.099 329.484L454.109 179.265C452.736 177.899 452.733 175.678 454.102 174.309L524.99 103.403ZM527.466 101.378C526.272 101.378 525.127 101.852 524.283 102.696L453.395 173.602C451.635 175.363 451.639 178.218 453.404 179.974L604.393 330.193C606.136 331.927 608.928 331.973 610.691 330.241C663.917 277.958 746.365 196.013 762.536 179.935C764.307 178.174 764.26 175.356 762.507 173.602L691.619 102.696C690.775 101.852 689.63 101.378 688.436 101.378H527.466ZM560.194 145.062C560.851 144.408 561.739 144.041 562.665 144.041H653.236C654.163 144.041 655.051 144.408 655.707 145.062L694.483 183.713C695.863 185.088 695.877 187.289 694.503 188.651C683.057 199.989 639.432 243.185 610.179 271.834C608.814 273.17 606.635 273.158 605.275 271.811L521.425 188.678C520.046 187.311 520.043 185.084 521.418 183.713L560.194 145.062ZM562.665 143.041C561.474 143.041 560.332 143.513 559.489 144.354L520.712 183.005C518.945 184.767 518.948 187.631 520.721 189.388L604.571 272.521C606.316 274.251 609.121 274.269 610.879 272.548C640.134 243.898 683.761 200.7 695.207 189.361C696.984 187.6 696.953 184.762 695.189 183.005L656.413 144.354C655.57 143.513 654.427 143.041 653.236 143.041H562.665Z" fill="url(#paint1_linear_1525_58295)"/>
<g filter="url(#filter0_i_1525_58295)">
<path d="M559.752 144.443L520.843 183.289C519.275 184.855 519.278 187.397 520.85 188.958L604.97 272.493C606.522 274.035 609.018 274.05 610.58 272.518C639.932 243.725 683.717 200.301 695.175 188.932C696.748 187.371 696.725 184.855 695.157 183.289L656.248 144.443C655.498 143.694 654.482 143.273 653.422 143.273H562.578C561.518 143.273 560.502 143.694 559.752 144.443Z" fill="white" fill-opacity="0.01"/>
</g>
<path d="M559.752 144.443L520.843 183.289C519.275 184.855 519.278 187.397 520.85 188.958L604.97 272.493C606.522 274.035 609.018 274.05 610.58 272.518C639.932 243.725 683.717 200.301 695.175 188.932C696.748 187.371 696.725 184.855 695.157 183.289L656.248 144.443C655.498 143.694 654.482 143.273 653.422 143.273H562.578C561.518 143.273 560.502 143.694 559.752 144.443Z" stroke="url(#paint2_linear_1525_58295)"/>
</g>
<defs>
<filter id="filter0_i_1525_58295" x="519.169" y="142.773" width="177.675" height="131.385" filterUnits="userSpaceOnUse" color-interpolation-filters="sRGB">
<feFlood flood-opacity="0" result="BackgroundImageFix"/>
<feBlend mode="normal" in="SourceGraphic" in2="BackgroundImageFix" result="shape"/>
<feColorMatrix in="SourceAlpha" type="matrix" values="0 0 0 0 0 0 0 0 0 0 0 0 0 0 0 0 0 0 127 0" result="hardAlpha"/>
<feOffset/>
<feGaussianBlur stdDeviation="8"/>
<feComposite in2="hardAlpha" operator="arithmetic" k2="-1" k3="1"/>
<feColorMatrix type="matrix" values="0 0 0 0 0.694118 0 0 0 0 0.65098 0 0 0 0 0.988235 0 0 0 0.4 0"/>
<feBlend mode="normal" in2="shape" result="effect1_innerShadow_1525_58295"/>
</filter>
<radialGradient id="paint0_radial_1525_58295" cx="0" cy="0" r="1" gradientUnits="userSpaceOnUse" gradientTransform="translate(564.34 214) rotate(165.782) scale(402.526 310.091)">
<stop/>
<stop offset="1" stop-opacity="0"/>
</radialGradient>
<linearGradient id="paint1_linear_1525_58295" x1="607.858" y1="177.624" x2="-390.923" y2="216.112" gradientUnits="userSpaceOnUse">
<stop stop-color="#8673FC"/>
<stop offset="0.114867" stop-color="#7955E5"/>
<stop offset="0.335164" stop-color="#9F63EE" stop-opacity="0.08"/>
<stop offset="0.389349" stop-color="#CA82F6"/>
<stop offset="0.590435" stop-color="#9F63EE" stop-opacity="0.08"/>
<stop offset="1" stop-color="#A28ED9"/>
</linearGradient>
<linearGradient id="paint2_linear_1525_58295" x1="692" y1="178" x2="518" y2="192.5" gradientUnits="userSpaceOnUse">
<stop stop-color="white"/>
<stop offset="0.60547" stop-color="white" stop-opacity="0"/>
<stop offset="0.782878" stop-color="white" stop-opacity="0.63"/>
<stop offset="1" stop-color="white" stop-opacity="0"/>
</linearGradient>
</defs>
</svg>
