<svg width="26" height="24" viewBox="0 0 26 24" fill="none" xmlns="http://www.w3.org/2000/svg">
<path d="M22.3333 22.6667H3.66667C2.19391 22.6667 1 21.4728 1 20L1 4C1 2.52724 2.19391 1.33334 3.66667 1.33334L17 1.33334C18.4728 1.33334 19.6667 2.52724 19.6667 4V5.33334M22.3333 22.6667C20.8606 22.6667 19.6667 21.4728 19.6667 20L19.6667 5.33334M22.3333 22.6667C23.8061 22.6667 25 21.4728 25 20V8C25 6.52724 23.8061 5.33334 22.3333 5.33334L19.6667 5.33334M14.3333 1.33334L9 1.33334M6.33333 17.3333H14.3333M6.33333 6.66667H14.3333V12H6.33333V6.66667Z" stroke="#111827" stroke-width="2" stroke-linecap="round" stroke-linejoin="round"/>
</svg>
