<svg width="26" height="26" viewBox="0 0 26 26" fill="none" xmlns="http://www.w3.org/2000/svg">
<path d="M15.7096 9.65538C16.0715 10.0725 16.7031 10.1173 17.1202 9.7553C17.5374 9.39335 17.5821 8.76176 17.2202 8.34462L15.7096 9.65538ZM10.2905 16.3446C9.9285 15.9275 9.29692 15.8827 8.87978 16.2447C8.46264 16.6067 8.4179 17.2382 8.77985 17.6554L10.2905 16.3446ZM14 6.33333C14 5.78105 13.5523 5.33333 13 5.33333C12.4477 5.33333 12 5.78105 12 6.33333H14ZM12 19.6666C12 20.2189 12.4477 20.6667 13 20.6667C13.5523 20.6667 14 20.219 14 19.6667L12 19.6666ZM24 13C24 19.0751 19.0751 24 13 24V26C20.1797 26 26 20.1797 26 13H24ZM13 24C6.92487 24 2 19.0751 2 13H0C0 20.1797 5.8203 26 13 26V24ZM2 13C2 6.92487 6.92487 2 13 2V0C5.8203 0 0 5.8203 0 13H2ZM13 2C19.0751 2 24 6.92487 24 13H26C26 5.8203 20.1797 0 13 0V2ZM13 12C12.0653 12 11.2644 11.7456 10.7263 11.3869C10.1812 11.0235 10 10.6313 10 10.3333H8C8 11.5081 8.71423 12.4492 9.61687 13.051C10.5265 13.6574 11.7255 14 13 14V12ZM10 10.3333C10 10.0353 10.1812 9.64315 10.7263 9.27977C11.2644 8.92104 12.0653 8.66667 13 8.66667V6.66667C11.7255 6.66667 10.5265 7.00924 9.61687 7.61566C8.71423 8.21743 8 9.15857 8 10.3333H10ZM13 8.66667C14.2739 8.66667 15.2563 9.13304 15.7096 9.65538L17.2202 8.34462C16.2902 7.27282 14.6872 6.66667 13 6.66667V8.66667ZM13 14C13.9347 14 14.7357 14.2544 15.2737 14.6131C15.8188 14.9765 16 15.3687 16 15.6667H18C18 14.4919 17.2858 13.5508 16.3831 12.949C15.4735 12.3426 14.2745 12 13 12V14ZM12 6.33333V7.66667H14V6.33333H12ZM12 18.3333L12 19.6666L14 19.6667L14 18.3334L12 18.3333ZM13 17.3333C11.7261 17.3333 10.7437 16.8669 10.2905 16.3446L8.77985 17.6554C9.70986 18.7272 11.3128 19.3333 13 19.3333L13 17.3333ZM16 15.6667C16 15.9647 15.8188 16.3569 15.2738 16.7202C14.7357 17.079 13.9347 17.3333 13 17.3333V19.3333C14.2745 19.3333 15.4735 18.9908 16.3832 18.3843C17.2858 17.7826 18 16.8414 18 15.6667H16ZM12 7.66667L12 18.3333L14 18.3333L14 7.66666L12 7.66667Z" fill="#111827"/>
</svg>
